# xmcd CD database file
#
# Track frame offsets:
#	150
#	19502
#	44027
#	77762
#	116730
#	125647
#	129100
#	157702
#	177370
#	201582
#	237355
#	240110
#	259015
#	277587
#
# Disc length: 4378 seconds
#
# Revision: 15
# Processed by: cddbd v1.5.2PL0 Copyright (c) Steve Scherf et al.
# Submitted via: CDex 1.51
#
DISCID=b011180e
DTITLE=The Orb - Cydonia [2CD Set Remastered and Expanded][CD1]
DYEAR=2001
DGENRE=Ambient
TTITLE0=Once More
TTITLE1=Promis
TTITLE2=Ghostdancing
TTITLE3=Turn It Down
TTITLE4=Egnable
TTITLE5=Firestar
TTITLE6=A Mile Long Lump Of Lard
TTITLE7=Centuries
TTITLE8=Plum Island
TTITLE9=Hamlet Of Kings
TTITLE10=1, 1, 1
TTITLE11=EDM (The Blackhole Mix)
TTITLE12=Thursday's Keeper
TTITLE13=Terminus
EXTD=Label: Universal Island Records\nSet Catalog #: 5308424\nCD1 Catalog #: 5308425\nCD2 Catalog #: 5308426\nRelease: 2001 (Original) - 2008-06-20 (Remaster]\nBarcode: 60075308424\nhttp://www.discogs.com/release/1373695 YEAR: 2001
EXTT0=
EXTT1=
EXTT2=
EXTT3=
EXTT4=
EXTT5=
EXTT6=
EXTT7=
EXTT8=
EXTT9=
EXTT10=
EXTT11=
EXTT12=
EXTT13=
PLAYORDER=
